<svg width="19" height="19" viewBox="0 0 19 19" fill="none" xmlns="http://www.w3.org/2000/svg">
    <path d="M9.49993 10.0937C6.99036 10.0937 4.94787 8.05116 4.94787 5.54159C4.94787 3.03201 6.99036 0.989524 9.49993 0.989524C12.0095 0.989524 14.052 3.03201 14.052 5.54159C14.052 8.05116 12.0095 10.0937 9.49993 10.0937ZM9.49993 2.17702C7.64744 2.17702 6.13536 3.6891 6.13536 5.54159C6.13536 7.39408 7.64744 8.90616 9.49993 8.90616C11.3524 8.90616 12.8645 7.39408 12.8645 5.54159C12.8645 3.6891 11.3524 2.17702 9.49993 2.17702Z" fill="white"/>
    <path d="M2.69978 18.0105C2.3752 18.0105 2.10603 17.7413 2.10603 17.4168C2.10603 14.0364 5.4231 11.2814 9.50016 11.2814C10.2997 11.2814 11.0835 11.3843 11.8435 11.5981C12.1601 11.6851 12.3422 12.0097 12.2552 12.3264C12.1681 12.643 11.8435 12.8251 11.5268 12.738C10.8777 12.556 10.1968 12.4689 9.50016 12.4689C6.08018 12.4689 3.29353 14.6855 3.29353 17.4168C3.29353 17.7413 3.02436 18.0105 2.69978 18.0105Z" fill="white"/>
    <path d="M14.2498 18.0104C12.9356 18.0104 11.7006 17.3138 11.0356 16.1817C10.6794 15.6117 10.4894 14.9388 10.4894 14.25C10.4894 13.0942 11.004 12.0255 11.8986 11.313C12.5636 10.7825 13.4027 10.4896 14.2498 10.4896C16.324 10.4896 18.0102 12.1759 18.0102 14.25C18.0102 14.9388 17.8202 15.6117 17.4639 16.1896C17.266 16.5221 17.0127 16.823 16.7119 17.0763C16.0548 17.678 15.176 18.0104 14.2498 18.0104ZM14.2498 11.6771C13.664 11.6771 13.1098 11.875 12.6427 12.2471C12.0331 12.73 11.6769 13.4663 11.6769 14.25C11.6769 14.7171 11.8036 15.1763 12.049 15.5721C12.5081 16.3479 13.3552 16.823 14.2498 16.823C14.8752 16.823 15.4769 16.5934 15.936 16.1817C16.1419 16.0075 16.316 15.8017 16.4427 15.58C16.696 15.1763 16.8227 14.7171 16.8227 14.25C16.8227 12.833 15.6669 11.6771 14.2498 11.6771Z" fill="white"/>
    <path d="M13.7987 15.6278C13.6483 15.6278 13.4979 15.5724 13.3791 15.4536L12.5954 14.6699C12.3658 14.4403 12.3658 14.0602 12.5954 13.8307C12.825 13.6011 13.205 13.6011 13.4346 13.8307L13.8146 14.2107L15.0812 13.039C15.3187 12.8173 15.6987 12.8332 15.9204 13.0707C16.142 13.3082 16.1262 13.6882 15.8887 13.9099L14.2025 15.4694C14.0837 15.5723 13.9412 15.6278 13.7987 15.6278Z" fill="white"/>
</svg>
