<svg width="14" height="20" viewBox="0 0 14 20" fill="none" xmlns="http://www.w3.org/2000/svg">
    <path d="M10.2226 17.5093L6.98821 19.5151L4.17456 17.5621V15.0136L5.49942 15.9269C6.40775 16.5539 7.59822 16.5632 8.5164 15.9505L10.2226 14.813V17.5093Z" fill="white"/>
    <path d="M13.3838 12.6987V15.2772L11.3223 16.9231V14.1661L13.3838 12.6987Z" fill="white"/>
    <path d="M13.3838 12.2551V12.6985L11.3223 14.1659V13.6982V13.6975L12.8955 12.6814C13.0798 12.5622 13.2431 12.4179 13.3824 12.2544L13.3838 12.2551Z" fill="black"/>
    <path d="M10.2226 14.4087V14.8129L8.5164 15.9504C7.59822 16.563 6.40775 16.5537 5.49942 15.9268L4.17456 15.0135V14.6158L5.86951 15.6912C6.59983 16.1546 7.52716 16.1503 8.25326 15.6812L10.2226 14.4087Z" fill="black"/>
    <path d="M3.21258 14.0059L3.21188 14.0073V14.4087L1.14966 13.0391V12.6985L1.15036 12.6978L3.21258 14.0059Z" fill="black"/>
    <path d="M3.21188 14.4086V16.9229L1.14966 15.2769V13.0391L3.21188 14.4086Z" fill="white"/>
    <path d="M7.77735 13.8659L7.60216 13.9802C7.23348 14.2208 6.76208 14.228 6.38777 13.9973L2.20634 11.4295C1.86299 11.2182 1.65332 10.8404 1.65332 10.4327V5.4214C1.65332 5.00795 1.86862 4.62593 2.21901 4.41742L6.40958 1.91748C6.77333 1.70112 7.22504 1.70398 7.58598 1.92605L7.62397 1.94961C7.42486 1.9539 7.22644 2.00531 7.04773 2.10314L2.68056 4.50525C2.31469 4.7059 2.09025 5.07293 2.09025 5.46995V10.2863C2.09025 10.6783 2.30906 11.0411 2.66719 11.2439L7.02452 13.7124C7.25459 13.8424 7.51984 13.8938 7.77735 13.8659Z" fill="black"/>
    <path d="M12.184 5.41078V10.3535C12.184 10.7498 11.9856 11.119 11.6577 11.3332L7.77744 13.866C7.51992 13.8939 7.25467 13.8424 7.0246 13.7125L2.66727 11.244C2.30915 11.0412 2.09033 10.6784 2.09033 10.2864V5.47004C2.09033 5.07302 2.31478 4.706 2.68064 4.50534L7.04781 2.10323C7.22653 2.0054 7.42494 1.95399 7.62405 1.94971H7.62476L11.6317 4.41466C11.9743 4.62602 12.184 5.00376 12.184 5.41078Z" fill="white"/>
    <mask id="mask0_0_141" style="mask-type:luminance" maskUnits="userSpaceOnUse" x="2" y="1" width="11" height="13">
        <path d="M12.2543 5.41078V10.3535C12.2543 10.7498 12.0559 11.119 11.728 11.3332L7.84775 13.866C7.59023 13.8939 7.32498 13.8424 7.09491 13.7125L2.73759 11.244C2.37946 11.0412 2.16064 10.6784 2.16064 10.2864V5.47004C2.16064 5.07302 2.38509 4.706 2.75096 4.50534L7.11813 2.10323C7.29684 2.0054 7.49525 1.95399 7.69437 1.94971H7.69507L11.702 4.41466C12.0447 4.62602 12.2543 5.00376 12.2543 5.41078Z" fill="white"/>
    </mask>
    <g mask="url(#mask0_0_141)">
        <mask id="mask1_0_141" style="mask-type:luminance" maskUnits="userSpaceOnUse" x="-3" y="-4" width="21" height="24">
            <path d="M5.98423 -3.91741L-2.32764 14.252L9.23381 19.6996L17.5457 1.53024L5.98423 -3.91741Z" fill="white"/>
        </mask>
        <g mask="url(#mask1_0_141)">
            <mask id="mask2_0_141" style="mask-type:luminance" maskUnits="userSpaceOnUse" x="-3" y="-4" width="21" height="24">
                <path d="M5.98423 -3.91741L-2.32764 14.252L9.23381 19.6996L17.5457 1.53024L5.98423 -3.91741Z" fill="white"/>
            </mask>
            <g mask="url(#mask2_0_141)">
                <rect x="-2.35083" y="-3.93506" width="19.9256" height="23.6498" fill="url(#paint0_linear_0_141)"/>
            </g>
        </g>
    </g>
    <path d="M4.2439 8.1584C4.2439 7.85707 4.82717 7.65356 4.91442 7.38222C5.00448 7.10087 4.65339 6.58818 4.82154 6.35396C4.99111 6.11761 5.58071 6.29827 5.8143 6.12618C6.04508 5.95552 6.05634 5.33 6.33355 5.23859C6.60092 5.15005 6.97171 5.64704 7.26862 5.64704C7.56554 5.64704 7.93563 5.15005 8.20369 5.23859C8.48091 5.33 8.49216 5.95623 8.72294 6.12618C8.95583 6.29827 9.54543 6.11689 9.7157 6.35396C9.88386 6.58818 9.53277 7.10087 9.62283 7.38222C9.71007 7.65356 10.2933 7.85778 10.2933 8.1584C10.2933 8.45974 9.71007 8.66325 9.62283 8.93459C9.53277 9.21593 9.88386 9.72863 9.7157 9.96284C9.54614 10.1992 8.95653 10.0185 8.72294 10.1906C8.49216 10.3613 8.48091 10.9868 8.20369 11.0782C7.93633 11.1668 7.56554 10.6698 7.26862 10.6698C6.97171 10.6698 6.60162 11.1668 6.33355 11.0782C6.05634 10.9868 6.04508 10.3606 5.8143 10.1906C5.58142 10.0185 4.99181 10.1999 4.82154 9.96284C4.65339 9.72863 5.00448 9.21593 4.91442 8.93459C4.82717 8.66325 4.2439 8.45974 4.2439 8.1584Z" fill="black"/>
    <path d="M4.72534 8.15836C4.72534 7.90487 5.21574 7.73421 5.28892 7.50571C5.3649 7.26864 5.0694 6.83806 5.21082 6.64097C5.35365 6.44175 5.84897 6.59456 6.04527 6.4496C6.23946 6.30608 6.24861 5.77981 6.4822 5.70269C6.70735 5.62843 7.01904 6.04616 7.26811 6.04616C7.51788 6.04616 7.82887 5.62843 8.05402 5.70269C8.28761 5.77981 8.29676 6.30608 8.49095 6.4496C8.68725 6.59456 9.18257 6.44175 9.3254 6.64097C9.46682 6.83806 9.17132 7.26864 9.2473 7.50571C9.32048 7.73421 9.81088 7.90558 9.81088 8.15836C9.81088 8.41185 9.32048 8.58252 9.2473 8.81102C9.17132 9.04809 9.46682 9.47867 9.3254 9.67575C9.18257 9.87497 8.68725 9.72216 8.49095 9.86712C8.29676 10.0106 8.28761 10.5369 8.05402 10.614C7.82887 10.6883 7.51718 10.2706 7.26811 10.2706C7.01834 10.2706 6.70735 10.6883 6.4822 10.614C6.24861 10.5369 6.23946 10.0106 6.04527 9.86712C5.84897 9.72216 5.35365 9.87497 5.21082 9.67575C5.0694 9.47867 5.3649 9.04809 5.28892 8.81102C5.21574 8.58252 4.72534 8.41114 4.72534 8.15836Z" fill="white"/>
    <path d="M6.06714 8.20627L7.02613 9.10885L8.71193 7.58789L8.33762 7.20801L7.11971 8.34837L6.46396 7.77783L6.06714 8.20627Z" fill="black"/>
    <path d="M13.9296 5.05038V10.7686C13.9296 11.322 13.7305 11.8483 13.3822 12.2546C13.2429 12.4181 13.0797 12.5623 12.8953 12.6816L11.3221 13.6977V13.6984L10.2224 14.4089L8.25305 15.6814C7.52694 16.1505 6.59961 16.1548 5.86929 15.6914L4.17434 14.616L3.21254 14.0062L1.15032 12.698L1.12077 12.6794C0.467137 12.2653 0.0703125 11.5384 0.0703125 10.7565V5.05038C0.0703125 4.23563 0.501612 3.483 1.19957 3.08027L5.89462 0.367542C6.57991 -0.0287639 7.42 -0.0287639 8.10529 0.367542L12.8003 3.08027C13.4983 3.483 13.9296 4.23563 13.9296 5.05038ZM12.184 10.3537V5.41098C12.184 5.00396 11.9743 4.62622 11.6317 4.41486L7.62474 1.94991H7.62404L7.58604 1.92634C7.2251 1.70427 6.7734 1.70141 6.40964 1.91778L2.21907 4.41772C1.86868 4.62622 1.65339 5.00825 1.65339 5.42169V10.433C1.65339 10.8407 1.86306 11.2185 2.20641 11.4298L6.38783 13.9976C6.76214 14.2282 7.23355 14.2211 7.60223 13.9805L7.77742 13.8662L11.6577 11.3334C11.9856 11.1192 12.184 10.75 12.184 10.3537Z" fill="white"/>
    <path d="M7.05347 16.1054C6.62851 16.1054 6.20424 15.9875 5.83204 15.7519L1.08353 12.74C0.404564 12.3101 0 11.5682 0 10.7563V5.05022C0 4.2112 0.446076 3.43287 1.16514 3.01799L5.86019 0.305263C6.56378 -0.101754 7.43763 -0.101754 8.14052 0.305263L12.8356 3.01799C13.5539 3.43287 14 4.2112 14 5.05022V10.7685C14 11.3318 13.7995 11.8767 13.4357 12.3015C13.2901 12.4722 13.1212 12.6207 12.9334 12.7421L11.3601 13.7582L11.2849 13.6376L12.8581 12.6214C13.034 12.5072 13.193 12.3687 13.3295 12.208C13.6714 11.8088 13.86 11.2983 13.86 10.7685V5.05022C13.86 4.26261 13.4406 3.53141 12.7666 3.14224L8.07086 0.42951C7.41019 0.0474851 6.58981 0.0474851 5.92984 0.42951L1.2348 3.14224C0.560057 3.53141 0.141422 4.26261 0.141422 5.05022V10.7563C0.141422 11.5189 0.522063 12.2151 1.15881 12.6186L1.18836 12.6372L5.90733 15.6305C6.61021 16.0768 7.51643 16.0725 8.2158 15.6205L11.2849 13.6376L11.3601 13.7582L8.29109 15.7412C7.91537 15.984 7.48407 16.1054 7.05347 16.1054Z" fill="black"/>
    <path d="M6.98097 14.236C6.76215 14.236 6.54404 14.1767 6.35196 14.0589L2.17053 11.4912C1.80818 11.2684 1.58374 10.8628 1.58374 10.4329V5.4216C1.58374 4.9846 1.81381 4.57615 2.1839 4.35622L6.37447 1.85628C6.76145 1.62635 7.23989 1.62921 7.62334 1.86556L7.66133 1.88913L7.58816 2.01123L7.55017 1.98767C7.21104 1.77916 6.78818 1.7763 6.44624 1.97981L2.25567 4.47975C1.9278 4.67469 1.72446 5.03601 1.72446 5.42232V10.4336C1.72446 10.8135 1.92357 11.172 2.24371 11.369L6.42513 13.9368C6.77341 14.1518 7.22089 14.1453 7.56494 13.9204L11.6204 11.2734C11.93 11.0713 12.1143 10.7271 12.1143 10.3536V5.41089C12.1143 5.03172 11.9159 4.67326 11.5958 4.47547L7.58887 2.01052L7.66204 1.88841L11.669 4.35336C12.0306 4.57615 12.2551 4.98174 12.2551 5.41089V10.3536C12.2551 10.7764 12.0461 11.1648 11.6964 11.3933L7.64093 14.0404C7.44111 14.1703 7.21104 14.236 6.98097 14.236Z" fill="black"/>
    <path d="M7.64313 13.9447C7.41516 13.9447 7.1879 13.8861 6.9909 13.7747L2.63358 11.3062C2.25575 11.092 2.02075 10.7014 2.02075 10.2865V5.47016C2.02075 5.04886 2.26138 4.6547 2.64765 4.44262L7.01482 2.04051C7.20057 1.93911 7.41024 1.8827 7.62343 1.87842L7.62554 2.02123H7.62483C7.43627 2.02552 7.24771 2.0755 7.08166 2.16619L2.71449 4.5683C2.37325 4.75538 2.16077 5.10099 2.16077 5.47016V10.2865C2.16077 10.65 2.36833 10.9927 2.70183 11.182L7.05915 13.6505C7.27163 13.7704 7.52492 13.8219 7.77048 13.7954L7.78525 13.9375C7.73741 13.9425 7.69027 13.9447 7.64313 13.9447Z" fill="black"/>
    <path d="M6.9859 19.5999L4.104 17.5998V14.6158H4.24472V17.5242L6.99012 19.43L10.152 17.4692V14.4087H10.2928V17.5491L6.9859 19.5999Z" fill="black"/>
    <path d="M3.21192 16.9945C3.19644 16.9945 3.18096 16.9895 3.1683 16.9795L1.10608 15.3336C1.0892 15.3201 1.07935 15.2994 1.07935 15.2772V12.6987H1.22006V15.2422L3.14156 16.776V14.0076H3.28228V16.9231C3.28228 16.9503 3.2668 16.9753 3.24288 16.9874C3.23303 16.9924 3.22248 16.9945 3.21192 16.9945Z" fill="black"/>
    <path d="M11.3924 14.1661H11.2517V13.6985L11.3924 13.6978V14.1661Z" fill="black"/>
    <path d="M11.3221 16.9941C11.3115 16.9941 11.301 16.992 11.2911 16.987C11.2672 16.9749 11.2517 16.9499 11.2517 16.9227V14.1657H11.3924V16.7756L13.3132 15.2418V12.2549H13.4539V15.2768C13.4539 15.2989 13.4441 15.3196 13.4272 15.3332L11.3657 16.9791C11.353 16.9891 11.3375 16.9941 11.3221 16.9941Z" fill="black"/>
    <path d="M1.18936 12.9796L1.1123 13.0991L3.17474 14.4689L3.2518 14.3494L1.18936 12.9796Z" fill="black"/>
    <path d="M13.3443 12.6395L11.283 14.1074L11.3638 14.2243L13.4251 12.7564L13.3443 12.6395Z" fill="black"/>
    <path d="M7.02463 16.4767C6.47865 16.4767 5.93337 16.3132 5.45915 15.9861L4.12866 15.0685L4.2138 14.9543L4.21661 14.9564L5.53865 15.8676C6.42658 16.4803 7.57976 16.4895 8.47754 15.8904L10.1837 14.7529L10.2675 14.8672L10.2611 14.8722L8.55494 16.0097C8.08846 16.321 7.55654 16.4767 7.02463 16.4767Z" fill="black"/>
    <path d="M6.17114 2.05612C7.57621 2.03541 7.59309 2.01827 7.6135 0.592285C7.6339 2.01827 7.65079 2.03541 9.05585 2.05612C7.65079 2.07682 7.6339 2.09396 7.6135 3.51995C7.59309 2.09396 7.57621 2.07682 6.17114 2.05612Z" fill="white"/>
    <path d="M11.3074 10.6963C12.1643 10.6834 12.1742 10.6734 12.1869 9.80371C12.1995 10.6734 12.2094 10.6834 13.0663 10.6963C12.2094 10.7091 12.1995 10.7191 12.1869 11.5889C12.1742 10.7191 12.1643 10.7091 11.3074 10.6963Z" fill="black"/>
    <path d="M0.260986 15.2661C1.11796 15.2533 1.12781 15.2433 1.14047 14.3735C1.15314 15.2433 1.16299 15.2533 2.01996 15.2661C1.16299 15.279 1.15314 15.289 1.14047 16.1587C1.12781 15.289 1.11796 15.279 0.260986 15.2661Z" fill="black"/>
    <path d="M3.91968 9.98242C4.77665 9.96957 4.7865 9.95957 4.79916 9.08984C4.81183 9.95957 4.82168 9.96957 5.67865 9.98242C4.82168 9.99528 4.81183 10.0053 4.79916 10.875C4.7865 10.0053 4.77665 9.99528 3.91968 9.98242Z" fill="white"/>
    <defs>
        <linearGradient id="paint0_linear_0_141" x1="-2.35083" y1="7.88985" x2="17.5748" y2="7.88985" gradientUnits="userSpaceOnUse">
            <stop stop-color="#483BEB"/>
            <stop offset="0.479167" stop-color="#7847E1"/>
            <stop offset="0.963542" stop-color="#DD568D"/>
        </linearGradient>
    </defs>
</svg>
